<?xml version="1.0" encoding="UTF-8" standalone="no"?>
<!-- Created with Inkscape (http://www.inkscape.org/) -->

<svg
   xmlns:dc="http://purl.org/dc/elements/1.1/"
   xmlns:cc="http://creativecommons.org/ns#"
   xmlns:rdf="http://www.w3.org/1999/02/22-rdf-syntax-ns#"
   xmlns:svg="http://www.w3.org/2000/svg"
   xmlns="http://www.w3.org/2000/svg"
   xmlns:xlink="http://www.w3.org/1999/xlink"
   xmlns:sodipodi="http://sodipodi.sourceforge.net/DTD/sodipodi-0.dtd"
   xmlns:inkscape="http://www.inkscape.org/namespaces/inkscape"
   width="50.937939mm"
   height="18.989876mm"
   viewBox="0 0 50.937938 18.989875"
   version="1.1"
   id="svg1886"
   inkscape:version="0.92.5 (2060ec1f9f, 2020-04-08)"
   sodipodi:docname="logo.svg">
  <defs
     id="defs1880">
    <filter
       style="color-interpolation-filters:sRGB"
       id="filter5238"
       inkscape:collect="always">
      <feGaussianBlur
         id="feGaussianBlur5240"
         stdDeviation="0.54293148"
         inkscape:collect="always" />
    </filter>
    <filter
       style="color-interpolation-filters:sRGB"
       id="filter5226"
       inkscape:collect="always">
      <feGaussianBlur
         id="feGaussianBlur5228"
         stdDeviation="0.2875"
         inkscape:collect="always" />
    </filter>
    <filter
       style="color-interpolation-filters:sRGB"
       id="filter5196"
       inkscape:collect="always">
      <feGaussianBlur
         id="feGaussianBlur5198"
         stdDeviation="0.31665404"
         inkscape:collect="always" />
    </filter>
    <linearGradient
       inkscape:collect="always"
       xlink:href="#XMLID_7_"
       id="linearGradient1796"
       gradientUnits="userSpaceOnUse"
       gradientTransform="matrix(0.17168765,0,0,0.17168765,-1.7203614,20.564655)"
       x1="9.26717"
       y1="255.32385"
       x2="67.714699"
       y2="255.32385" />
    <linearGradient
       gradientTransform="translate(-1.9122445,-1.9122446)"
       x1="7.0521998"
       x2="133.89"
       y1="63.737"
       gradientUnits="userSpaceOnUse"
       y2="63.737"
       id="XMLID_7_">
      <stop
         offset="0"
         stop-color="#EAEAEA"
         id="stop6" />
      <stop
         offset=".1981"
         stop-color="#E1E1E1"
         id="stop8" />
      <stop
         offset=".5226"
         stop-color="#C9C8C8"
         id="stop10" />
      <stop
         offset=".9311"
         stop-color="#A1A0A0"
         id="stop12" />
      <stop
         offset="1"
         stop-color="#9A9999"
         id="stop14" />
    </linearGradient>
  </defs>
  <sodipodi:namedview
     id="base"
     pagecolor="#ffffff"
     bordercolor="#666666"
     borderopacity="1.0"
     inkscape:pageopacity="0.0"
     inkscape:pageshadow="2"
     inkscape:zoom="1.979899"
     inkscape:cx="26.401867"
     inkscape:cy="76.551173"
     inkscape:document-units="mm"
     inkscape:current-layer="layer1"
     showgrid="false"
     inkscape:window-width="2560"
     inkscape:window-height="1373"
     inkscape:window-x="0"
     inkscape:window-y="0"
     inkscape:window-maximized="1"
     fit-margin-top="0"
     fit-margin-left="0"
     fit-margin-right="0"
     fit-margin-bottom="0" />
  <metadata
     id="metadata1883">
    <rdf:RDF>
      <cc:Work
         rdf:about="">
        <dc:format>image/svg+xml</dc:format>
        <dc:type
           rdf:resource="http://purl.org/dc/dcmitype/StillImage" />
        <dc:title></dc:title>
      </cc:Work>
    </rdf:RDF>
  </metadata>
  <g
     inkscape:label="Ebene 1"
     inkscape:groupmode="layer"
     id="layer1"
     transform="translate(10.367874,-58.382602)">
    <g
       id="g2753"
       transform="translate(0,-0.4176084)">
      <rect
         inkscape:export-ydpi="7.9840932"
         inkscape:export-xdpi="7.9840932"
         inkscape:export-filename="/home/chaas/projekte/ispmailmanager.padrino/icons/logo.png"
         transform="matrix(0.17168765,0,0,0.17168765,-20.644297,47.269866)"
         style="opacity:0.2;fill:#000000;fill-opacity:1;stroke:none;filter:url(#filter5238)"
         id="rect1750"
         width="125"
         height="92.172592"
         x="72.355339"
         y="76.376106"
         ry="16.757946"
         rx="16.757946" />
      <rect
         inkscape:export-ydpi="7.9840932"
         inkscape:export-xdpi="7.9840932"
         inkscape:export-filename="/home/chaas/projekte/ispmailmanager.padrino/icons/logo.png"
         ry="2.8771324"
         y="60.039326"
         x="-8.565156"
         height="15.824895"
         width="21.460957"
         id="rect1752"
         style="fill:#c8ab37;fill-opacity:1;stroke:#000000;stroke-width:0.36761245;stroke-miterlimit:4;stroke-dasharray:none"
         rx="2.8771324" />
      <g
         inkscape:export-ydpi="7.9840932"
         inkscape:export-xdpi="7.9840932"
         inkscape:export-filename="/home/chaas/projekte/ispmailmanager.padrino/icons/logo.png"
         style="opacity:0.2;fill:#000000;filter:url(#filter5226)"
         id="g1770"
         transform="matrix(0.17168765,0,0,0.17168765,-3.9550779,24.330168)">
        <path
           sodipodi:nodetypes="ccccc"
           inkscape:connector-curvature="0"
           id="path1754"
           d="m 15.27537,278.07031 h 70 v -45 h -70 z"
           style="fill:#000000;stroke:#000000;stroke-width:1px;stroke-linecap:butt;stroke-linejoin:miter;stroke-opacity:1" />
        <path
           sodipodi:nodetypes="ccc"
           inkscape:connector-curvature="0"
           id="path1756"
           d="m 15.27537,233.07031 35,25 35,-25"
           style="fill:#000000;stroke:#000000;stroke-width:1px;stroke-linecap:butt;stroke-linejoin:miter;stroke-opacity:1" />
        <path
           sodipodi:nodetypes="cc"
           inkscape:connector-curvature="0"
           id="path1758"
           d="m 15.27537,278.07031 20,-30"
           style="fill:#000000;stroke:#000000;stroke-width:1px;stroke-linecap:butt;stroke-linejoin:miter;stroke-opacity:1" />
        <path
           style="fill:#000000;stroke:#000000;stroke-width:1px;stroke-linecap:butt;stroke-linejoin:miter;stroke-opacity:1"
           d="m 85.27537,278.07031 -20,-30"
           id="path1760"
           inkscape:connector-curvature="0"
           sodipodi:nodetypes="cc" />
        <path
           inkscape:connector-curvature="0"
           id="path1762"
           d="M 33.66571,245.42871 17.276035,233.69975 H 50.19794 c 27.764058,0 32.863967,0.0538 32.552115,0.34331 -0.667099,0.61934 -32.332538,23.1431 -32.515866,23.12867 -0.09834,-0.008 -7.554158,-5.2921 -16.568479,-11.74302 z"
           style="fill:#000000;fill-opacity:1;stroke:none" />
        <path
           inkscape:connector-curvature="0"
           id="path1764"
           d="m 15.836553,255.20758 c -4.7e-5,-11.43576 0.09482,-20.75442 0.210806,-20.70812 0.4741,0.18924 18.476924,13.15183 18.476844,13.3039 -4.7e-5,0.0906 -4.204768,6.47194 -9.343825,14.18066 l -9.343739,14.01587 z"
           style="fill:#000000;fill-opacity:1;stroke:none" />
        <path
           inkscape:connector-curvature="0"
           id="path1766"
           d="m 16.753034,277.07318 c 0.233876,-0.39113 18.817529,-28.31073 18.93213,-28.44316 0.04557,-0.0527 3.209605,2.13749 7.031177,4.867 3.821574,2.72951 7.12098,5.029 7.332013,5.10999 0.243348,0.0934 2.901302,-1.64735 7.266434,-4.75889 3.785504,-2.69837 7.021265,-4.98772 7.190584,-5.08744 0.207915,-0.12246 3.426,4.49483 9.913228,14.22343 l 9.605379,14.40474 H 50.294127 c -26.916196,0 -33.691723,-0.0638 -33.541093,-0.31567 z"
           style="fill:#000000;fill-opacity:1;stroke:none" />
        <path
           inkscape:connector-curvature="0"
           id="path1768"
           d="m 75.131058,261.65452 c -8.292261,-12.44094 -9.224109,-13.93962 -8.838835,-14.21531 0.236873,-0.1695 4.408154,-3.1511 9.269514,-6.62578 l 8.838834,-6.3176 0.06595,10.3537 c 0.03627,5.69453 0.03627,14.93434 0,20.5329 l -0.06595,10.17922 z"
           style="fill:#000000;fill-opacity:1;stroke:none" />
      </g>
      <g
         style="stroke-width:2.14117002;stroke-miterlimit:4;stroke-dasharray:none"
         inkscape:export-ydpi="7.9840932"
         inkscape:export-xdpi="7.9840932"
         inkscape:export-filename="/home/chaas/projekte/ispmailmanager.padrino/icons/logo.png"
         transform="matrix(0.17168765,0,0,0.17168765,-4.2984533,23.986793)"
         id="g1788">
        <path
           style="fill:#ffffff;stroke:#000000;stroke-width:2.14117002;stroke-linecap:butt;stroke-linejoin:miter;stroke-miterlimit:4;stroke-dasharray:none;stroke-opacity:1"
           d="m 15.27537,278.07031 h 70 v -45 h -70 z"
           id="path1772"
           inkscape:connector-curvature="0"
           sodipodi:nodetypes="ccccc" />
        <path
           style="fill:none;stroke:#000000;stroke-width:2.14117002;stroke-linecap:butt;stroke-linejoin:miter;stroke-miterlimit:4;stroke-dasharray:none;stroke-opacity:1"
           d="m 15.27537,233.07031 35,25 35,-25"
           id="path1774"
           inkscape:connector-curvature="0"
           sodipodi:nodetypes="ccc" />
        <path
           style="fill:none;stroke:#000000;stroke-width:2.14117002;stroke-linecap:butt;stroke-linejoin:miter;stroke-miterlimit:4;stroke-dasharray:none;stroke-opacity:1"
           d="m 15.27537,278.07031 20,-30"
           id="path1776"
           inkscape:connector-curvature="0"
           sodipodi:nodetypes="cc" />
        <path
           sodipodi:nodetypes="cc"
           inkscape:connector-curvature="0"
           id="path1778"
           d="m 85.27537,278.07031 -20,-30"
           style="fill:none;stroke:#000000;stroke-width:2.14117002;stroke-linecap:butt;stroke-linejoin:miter;stroke-miterlimit:4;stroke-dasharray:none;stroke-opacity:1" />
        <path
           style="fill:#ececec;fill-opacity:1;stroke:none"
           d="M 33.66571,245.42871 17.276035,233.69975 H 50.19794 c 27.764058,0 32.863967,0.0538 32.552115,0.34331 -0.667099,0.61934 -32.332538,23.1431 -32.515866,23.12867 -0.09834,-0.008 -7.554158,-5.2921 -16.568479,-11.74302 z"
           id="path1780"
           inkscape:connector-curvature="0" />
        <path
           style="fill:#cccccc;fill-opacity:1;stroke:none"
           d="m 15.836553,255.20758 c -4.7e-5,-11.43576 0.09482,-20.75442 0.210806,-20.70812 0.4741,0.18924 18.476924,13.15183 18.476844,13.3039 -4.7e-5,0.0906 -4.204768,6.47194 -9.343825,14.18066 l -9.343739,14.01587 z"
           id="path1782"
           inkscape:connector-curvature="0" />
        <path
           style="fill:#cccccc;fill-opacity:1;stroke:none"
           d="m 16.753034,277.07318 c 0.233876,-0.39113 18.817529,-28.31073 18.93213,-28.44316 0.04557,-0.0527 3.209605,2.13749 7.031177,4.867 3.821574,2.72951 7.12098,5.029 7.332013,5.10999 0.243348,0.0934 2.901302,-1.64735 7.266434,-4.75889 3.785504,-2.69837 7.021265,-4.98772 7.190584,-5.08744 0.207915,-0.12246 3.426,4.49483 9.913228,14.22343 l 9.605379,14.40474 H 50.294127 c -26.916196,0 -33.691723,-0.0638 -33.541093,-0.31567 z"
           id="path1784"
           inkscape:connector-curvature="0" />
        <path
           style="fill:#cccccc;fill-opacity:1;stroke:none"
           d="m 75.131058,261.65452 c -8.292261,-12.44094 -9.224109,-13.93962 -8.838835,-14.21531 0.236873,-0.1695 4.408154,-3.1511 9.269514,-6.62578 l 8.838834,-6.3176 0.06595,10.3537 c 0.03627,5.69453 0.03627,14.93434 0,20.5329 l -0.06595,10.17922 z"
           id="path1786"
           inkscape:connector-curvature="0" />
      </g>
      <path
         inkscape:export-ydpi="7.9840932"
         inkscape:export-xdpi="7.9840932"
         inkscape:export-filename="/home/chaas/projekte/ispmailmanager.padrino/icons/logo.png"
         transform="matrix(0.17168765,0,0,0.17168765,-20.644297,47.269866)"
         id="path1790"
         d="m 130.29305,135.54425 c -4.11725,-5.47029 -9.29282,-10.49917 -14.07117,-15.32715 -2.63621,-2.66329 -6.93443,-6.39832 -7.1826,-10.38539 -0.15437,-2.481 1.29592,-4.65969 1.22626,-7.26527 -0.0699,-2.663749 -0.92915,-5.333009 -2.44031,-7.611809 -3.25919,-4.91481 -9.245761,-7.4765 -14.690214,-6.25888 l 4.968105,6.60826 c 2.349679,3.12589 1.762204,4.953039 -1.087608,7.070199 -2.651512,1.96946 -4.50685,1.49731 -6.563245,-1.23524 -1.714967,-2.278299 -3.428547,-4.555849 -5.143451,-6.834199 -2.825364,4.62946 -2.375616,10.895549 1.087877,15.500819 1.635894,2.17499 3.86045,3.88641 6.348175,4.86745 1.193453,0.47045 2.442259,0.77449 3.695911,0.89998 1.335015,0.13314 3.298646,-0.53582 4.47103,0.0145 4.09358,1.91745 6.50059,6.51783 8.50771,10.39346 3.15736,6.09259 6.0824,11.81176 10.33067,17.34168 3.49711,4.55172 6.58624,9.14745 11.34419,12.41239 3.62187,2.48463 6.53286,2.59557 9.0772,-0.76052 1.45746,-1.91785 0.64746,-4.10275 -0.37137,-6.24499 -2.38672,-5.01863 -6.59276,-9.48614 -9.92428,-13.92039"
         inkscape:connector-curvature="0"
         style="opacity:0.2;fill:#000000;fill-opacity:1;stroke:#000000;stroke-width:0.94249403;stroke-miterlimit:4;stroke-dasharray:none;stroke-opacity:1;filter:url(#filter5196)"
         sodipodi:nodetypes="ccccsccccccccccccccc" />
      <path
         inkscape:export-ydpi="7.9840932"
         inkscape:export-xdpi="7.9840932"
         inkscape:export-filename="/home/chaas/projekte/ispmailmanager.padrino/icons/logo.png"
         sodipodi:nodetypes="ccccsccccccccccccccc"
         style="fill:url(#linearGradient1796);fill-opacity:1;stroke:#000000;stroke-width:0.36761245;stroke-miterlimit:4;stroke-dasharray:none;stroke-opacity:1"
         inkscape:connector-curvature="0"
         d="m 1.382034,70.197764 c -0.7068812,-0.939181 -1.59546269,-1.802577 -2.4158461,-2.631482 -0.4526048,-0.457254 -1.1905559,-1.098513 -1.2331637,-1.783043 -0.026503,-0.425957 0.2224935,-0.800011 0.2105335,-1.247358 -0.012,-0.457333 -0.1595236,-0.915611 -0.4189708,-1.306853 -0.5595628,-0.843812 -1.587383,-1.283623 -2.5221285,-1.074572 l 0.8529624,1.134557 c 0.4034113,0.536676 0.3025487,0.850375 -0.1867287,1.213865 -0.4552321,0.338132 -0.7737705,0.25707 -1.1268281,-0.212075 -0.2944388,-0.391156 -0.5886395,-0.782183 -0.8830673,-1.173348 -0.4850801,0.794821 -0.4078638,1.870631 0.1867751,2.661299 0.2808629,0.373419 0.6627916,0.667249 1.0899033,0.835681 0.2049012,0.08077 0.4193057,0.13297 0.634542,0.154516 0.2292057,0.02286 0.5663368,-0.092 0.7676209,0.0025 0.7028172,0.329203 1.116071,1.119031 1.4606687,1.784429 0.5420799,1.046022 1.044273,2.027933 1.7736484,2.977352 0.6004105,0.781475 1.13077598,1.570505 1.9476571,2.131054 0.6218305,0.42658 1.1216114,0.445627 1.5584431,-0.130571 0.250228,-0.329271 0.1111614,-0.704392 -0.06376,-1.072188 -0.4097698,-0.861683 -1.1318952,-1.628699 -1.703876,-2.390005"
         id="path1792" />
    </g>
    <text
       xml:space="preserve"
       style="font-style:normal;font-variant:normal;font-weight:normal;font-stretch:normal;font-size:7.98609829px;line-height:0%;font-family:Ubuntu;-inkscape-font-specification:Ubuntu;letter-spacing:0px;word-spacing:0px;fill:#000000;fill-opacity:1;stroke:none;stroke-width:0.66550815"
       x="17.780645"
       y="67.903702"
       id="text4671"><tspan
         sodipodi:role="line"
         id="tspan4673"
         x="17.780645"
         y="67.903702"
         style="font-size:6.63815641px;line-height:1.25;fill:#000000;stroke:none;stroke-width:0.66550815">ISPmail</tspan></text>
    <text
       xml:space="preserve"
       style="font-style:normal;font-variant:normal;font-weight:normal;font-stretch:normal;font-size:5.87189341px;line-height:0%;font-family:Ubuntu;-inkscape-font-specification:Ubuntu;letter-spacing:0px;word-spacing:0px;fill:#000000;fill-opacity:1;stroke:none;stroke-width:0.48932442"
       x="17.951431"
       y="72.942116"
       id="text4671-3"><tspan
         sodipodi:role="line"
         id="tspan4673-6"
         x="17.951431"
         y="72.942116"
         style="font-size:4.88079977px;line-height:1.25;fill:#000000;stroke-width:0.48932442">CONSOLE</tspan></text>
  </g>
</svg>
